<svg width="45" height="58" fill="none" xmlns="http://www.w3.org/2000/svg"><path d="M9.314 35.772v.676c0 4.495 2.326 7.348 4.367 8.52V27.933c-2.194 1.042-4.22 1.418-4.367 7.839zm8.925 11.908c.813.42 1.692.85 2.636 1.314V31.991l1.987 1.986c.541.545.845 1.282.846 2.05v12.929c.944-.464 1.823-.9 2.642-1.32a3.16 3.16 0 001.708-2.815v-9.704a5.014 5.014 0 00-1.48-3.562l-4.699-4.702 4.7-4.703a5.029 5.029 0 001.48-3.562V1.738L23.691.102v17.592a2.916 2.916 0 01-.846 2.05l-1.987 1.986V.052L16.492 1.69v43.154a3.163 3.163 0 001.747 2.836z" fill="#E4B564"/><path d="M44.176 11.055a4.59 4.59 0 00-2.97-4.304l-3.242-1.233v13.714l-2.805 3.35.044-13.464V4.471l-4.367-1.637v42.003c3.03-2.509 4.285-5.847 4.285-13.091v-2.33l2.81-3.376v5.706c0 13.37-4.47 15.563-13.383 19.926-.764.377-1.55.759-2.358 1.162-.808-.403-1.593-.785-2.358-1.162C10.92 47.31 6.45 45.127 6.45 31.746v-21.58l2.833-1.091v8.035c.147 6.42 2.183 6.797 4.366 7.839V2.785L3.223 6.751a4.595 4.595 0 00-2.97 4.304v1.451l1.862-.71v19.906c0 16.076 6.637 19.327 15.829 23.827 1.053.546 2.145 1.053 3.275 1.637l.988.507.988-.507c1.135-.579 2.227-1.091 3.275-1.637 9.18-4.5 15.828-7.751 15.828-23.827V11.819l1.862.709.016-1.473z" fill="#E4B564"/></svg>